# Blender v2.82 (sub 7) OBJ File: ''
# www.blender.org
mtllib Wall-1.mtl
o Cube_Cube.017
v -29.453922 0.764029 3.166368
v -29.453922 6.727740 1.317007
v -31.958763 0.764029 -2.925138
v -31.958763 6.727740 -2.612868
v 37.158653 0.764029 3.166368
v 37.158653 7.241933 1.337880
v 34.653816 0.764029 -2.925138
v 34.653816 7.043254 -2.612868
v -32.146690 11.501278 1.206372
v -32.533360 11.501278 -6.581475
v 31.953472 11.445121 -4.534939
v 34.465889 13.481341 1.337880
v -32.146690 13.353880 1.101994
v -32.447247 13.353880 -5.413638
v 31.961052 13.635118 -4.611698
v 34.465889 16.019375 1.337880
v -27.735420 21.016663 -0.301533
v -29.893589 21.017448 -3.347024
v 29.476692 22.849411 -4.978412
v 37.462864 21.537575 1.487611
v 26.289959 0.837860 -3.051581
v 18.004929 0.374373 -2.926602
v 9.599624 0.457607 -6.363764
v 1.347526 0.779309 -5.028156
v -6.979045 0.763423 -7.061957
v -15.305617 0.764029 -5.028156
v -23.776348 0.774236 -3.133356
v -23.776348 5.694767 -2.934355
v -15.305615 6.727740 -5.663358
v -6.979044 6.760794 -8.289169
v 1.347529 8.663456 -5.610391
v 9.599626 8.267555 -6.008390
v 18.000671 7.420705 -2.612868
v -20.582726 0.774236 4.558591
v -12.800776 0.764029 1.013653
v -4.474205 0.700666 0.303514
v 3.852367 0.538518 2.475762
v 12.802889 -0.030222 4.590126
v 20.505512 0.594479 3.166368
v 28.832085 0.764029 3.166368
v 28.832081 6.781468 1.337880
v 20.505508 6.739374 1.337880
v 12.802886 6.843994 2.251800
v 3.852365 8.709717 -0.118625
v -4.474206 7.175569 -3.252215
v -12.800779 6.727740 -2.334396
v -20.582729 5.694767 1.562039
v -24.846527 11.780936 -8.376007
v -16.409756 11.501278 -8.735922
v -8.347955 11.519110 -10.947457
v -0.286154 13.876415 -9.277822
v 15.837448 14.029424 -6.546779
v 23.899250 11.572382 -6.546779
v 26.139317 11.839784 1.337880
v 17.812744 12.614763 1.337880
v 9.359298 15.185394 2.302035
v 1.159600 14.209729 0.516158
v -7.166971 11.717715 -1.864528
v -15.493545 11.501278 -1.108135
v -24.015949 11.780936 1.594053
v -24.750462 14.142970 -7.058490
v -16.345173 13.353880 -7.295316
v -8.294135 13.395563 -10.726948
v -0.243098 15.909454 -6.685143
v 7.213123 19.604130 -5.925796
v 15.858976 16.023201 -5.193975
v 23.910015 13.476248 -5.272434
v 26.139317 13.961056 1.337880
v 17.812744 14.571016 1.337880
v 9.359298 17.775921 2.382543
v 1.159600 16.084862 1.369948
v -7.166971 13.571098 -0.701409
v -15.493545 13.353880 -0.585864
v -24.015949 14.142970 1.630380
v -22.929726 23.390518 -3.592519
v -11.686810 20.499680 -2.270120
v -2.865228 19.970474 -2.595540
v 0.888506 22.103477 -1.445564
v 10.028234 25.986973 -3.638776
v 18.130299 21.612423 -3.238225
v 26.333069 21.247345 -3.237322
v 28.961369 23.005257 -0.570451
v 20.777554 20.712284 -0.570494
v 13.248311 24.928989 -0.070772
v 4.517842 22.560123 0.644951
v -1.688565 20.893044 1.913627
v -10.231961 20.560425 1.107789
v -20.379368 23.278259 3.957451
v -32.360821 10.067864 -5.971737
v 32.764343 10.123314 -3.998061
v 35.274483 11.607752 1.337880
v -31.338097 10.067864 1.239594
v -22.985008 9.953362 1.483751
v -14.684953 10.067864 -1.554345
v -6.358379 10.353785 -2.317910
v 1.968192 12.558167 0.227456
v 10.393350 12.680612 2.251800
v 18.621338 10.850481 1.337880
v 26.947910 10.320856 1.337880
v 24.661076 9.922562 -5.932626
v 16.487028 12.044936 -5.947459
v 7.900855 14.362628 -7.231352
v 0.204414 12.311051 -8.786816
v -7.936893 10.090267 -10.732031
v -16.078201 10.067864 -8.395249
v -24.525169 9.953362 -7.483970
v 25.451302 8.212996 -4.400599
v 20.207180 0.660377 -3.051581
v 29.377377 0.914946 -3.051581
v 28.137508 6.670091 -2.754497
v 23.337238 6.842639 -2.754497
v 23.653938 8.346887 -4.027417
v 27.563381 7.898712 -4.030815
v 28.032314 0.882819 -5.350831
v 26.016663 0.881632 -5.350831
v 24.088955 4.749221 -5.156878
v 26.016663 4.588790 -5.156878
v 25.552616 6.822028 -5.254336
v 22.045464 0.697006 -5.350831
v 27.222855 4.634496 -5.156878
v 24.379189 6.881528 -5.010701
v 26.940834 6.617343 -5.005960
v -16.371124 15.931931 -6.270738
v -22.620358 17.289207 -6.508361
v -20.834339 16.370644 -6.597978
v -19.407089 16.920931 -6.436114
v -20.354893 16.994318 -4.823055
v -29.069782 20.551495 1.094510
v -31.574623 20.551495 -4.968777
v 26.390221 21.231258 -4.608715
v 34.856411 22.950920 -4.616374
v 37.542793 21.664028 1.337880
v -20.092957 23.319790 7.330547
v -23.345074 23.165062 -6.483408
v -15.013238 20.308781 -4.978546
v -6.732547 20.272034 -6.084711
v 1.548145 22.290001 -3.303921
v 9.797508 25.909554 -5.352884
v 18.109528 21.561020 -4.608715
v 29.216221 23.019970 1.337880
v 20.889648 20.661930 1.337880
v 13.294135 24.792458 2.251800
v 4.236505 22.423508 2.659395
v -4.090067 20.809776 3.894688
v -12.416639 20.551495 2.466753
v 26.036697 27.876560 -3.439733
v 28.665001 29.634476 -0.772862
v 17.833931 28.241638 -3.440636
v 20.481182 27.341499 -0.772905
v 9.731865 25.838737 -3.836450
v 12.951943 31.558205 -0.273183
v 0.592138 28.732693 -2.621467
v 4.221474 29.189339 -0.306627
v -3.161597 26.599689 -3.469882
v -1.984933 27.522259 0.681028
v -11.983178 27.128895 -3.111421
v -10.528330 27.189640 0.076510
v -23.226097 30.019733 -4.284491
v -20.675739 29.907475 -0.472135
v -28.031788 27.645878 -0.720205
v -30.189957 27.646664 -3.654372
v 29.180325 29.478626 -3.452788
v 32.055557 28.166790 -0.744680
v 6.482844 16.691765 -8.135895
v 8.216749 16.622742 -7.842060
v 6.482844 16.691765 -5.889502
v 7.200225 18.784035 -6.579757
v 7.261303 16.488768 -6.074485
v -20.723373 16.281490 -6.987025
v -24.176525 17.827442 -6.832171
v -15.875709 15.805253 -6.631754
v -20.604340 17.375061 -6.893603
v -19.446987 16.639103 -4.934004
vt 0.375000 0.000000
vt 0.625000 0.000000
vt 0.625000 0.250000
vt 0.375000 0.250000
vt 0.355930 0.500000
vt 0.343750 0.500000
vt 0.343750 0.500000
vt 0.355930 0.500000
vt 0.375000 0.500000
vt 0.625000 0.500000
vt 0.625000 0.750000
vt 0.375000 0.750000
vt 0.375000 0.968750
vt 0.625000 0.968750
vt 0.625000 1.000000
vt 0.375000 1.000000
vt 0.343750 0.750000
vt 0.625000 0.281250
vt 0.625000 0.250000
vt 0.625000 0.250000
vt 0.625000 0.281250
vt 0.625000 0.750000
vt 0.625000 0.500000
vt 0.625000 0.500000
vt 0.625000 0.750000
vt 0.625000 0.750000
vt 0.625000 0.500000
vt 0.625000 0.000000
vt 0.625000 0.000000
vt 0.625000 0.781250
vt 0.625000 0.781250
vt 0.625000 0.781250
vt 0.625000 0.750000
vt 0.625000 0.781250
vt 0.625000 0.000000
vt 0.625000 0.250000
vt 0.625000 0.281250
vt 0.719809 0.516230
vt 0.751987 0.521315
vt 0.751987 0.521315
vt 0.719809 0.516230
vt 0.625000 0.250000
vt 0.625000 0.281250
vt 0.625000 0.281250
vt 0.625000 0.500000
vt 0.625000 0.000000
vt 0.625000 0.468750
vt 0.625000 0.468750
vt 0.625000 0.437500
vt 0.625000 0.437500
vt 0.625000 0.406250
vt 0.625000 0.406250
vt 0.625000 0.375000
vt 0.625000 0.375000
vt 0.625000 0.343750
vt 0.625000 0.343750
vt 0.625000 0.312500
vt 0.625000 0.312500
vt 0.625000 0.312500
vt 0.625000 0.288335
vt 0.771075 0.730002
vt 0.747343 0.728405
vt 0.747343 0.728405
vt 0.771075 0.730002
vt 0.869523 0.523993
vt 0.869703 0.728503
vt 0.869703 0.728503
vt 0.869523 0.523993
vt 0.784355 0.524930
vt 0.784355 0.524930
vt 0.717974 0.734055
vt 0.717974 0.734055
vt 0.800379 0.537466
vt 0.800379 0.537466
vt 0.687322 0.729657
vt 0.687322 0.729657
vt 0.845927 0.518445
vt 0.845927 0.518445
vt 0.625000 0.468750
vt 0.625000 0.437500
vt 0.625000 0.410018
vt 0.625000 0.406250
vt 0.625000 0.403363
vt 0.625000 0.403363
vt 0.625000 0.375000
vt 0.625000 0.343750
vt 0.625000 0.312500
vt 0.625000 1.000000
vt 0.625000 0.968750
vt 0.625000 0.968750
vt 0.625000 1.000000
vt 0.625000 0.937500
vt 0.625000 0.937500
vt 0.625000 0.906250
vt 0.625000 0.906250
vt 0.625000 0.875000
vt 0.625000 0.875000
vt 0.625000 0.843750
vt 0.625000 0.843750
vt 0.625000 0.812500
vt 0.625000 0.812500
vt 0.625000 0.968750
vt 0.625000 1.000000
vt 0.625000 0.937500
vt 0.625000 0.906250
vt 0.625000 0.875000
vt 0.625000 0.843750
vt 0.625000 0.812500
vt 0.625000 1.000000
vt 0.625000 0.968750
vt 0.625000 0.937500
vt 0.625000 0.906250
vt 0.625000 0.875000
vt 0.625000 0.843750
vt 0.625000 0.812500
vt 0.625000 0.468750
vt 0.625000 0.437500
vt 0.625000 0.406250
vt 0.625000 0.375000
vt 0.625000 0.343750
vt 0.625000 0.312500
vt 0.125000 0.500000
vt 0.156250 0.500000
vt 0.156250 0.750000
vt 0.125000 0.750000
vt 0.187500 0.500000
vt 0.187500 0.750000
vt 0.218750 0.500000
vt 0.218750 0.750000
vt 0.250000 0.500000
vt 0.250000 0.750000
vt 0.281250 0.500000
vt 0.281250 0.750000
vt 0.312500 0.500000
vt 0.312500 0.750000
vt 0.319754 0.500000
vt 0.625000 0.781250
vt 0.375000 0.781250
vt 0.625000 0.812500
vt 0.375000 0.812500
vt 0.625000 0.843750
vt 0.375000 0.843750
vt 0.625000 0.875000
vt 0.375000 0.875000
vt 0.625000 0.906250
vt 0.375000 0.906250
vt 0.625000 0.937500
vt 0.375000 0.937500
vt 0.625000 0.312500
vt 0.625000 0.281250
vt 0.625000 0.343750
vt 0.625000 0.375000
vt 0.625000 0.406250
vt 0.625000 0.437500
vt 0.625000 0.457102
vt 0.625000 0.457372
vt 0.625000 0.457372
vt 0.625000 0.457102
vt 0.625000 0.476038
vt 0.625000 0.476598
vt 0.625000 0.468750
vt 0.625000 0.476038
vt 0.625000 0.476598
vt 0.625000 0.468750
vt 0.625000 0.468750
vt 0.319754 0.500000
vt 0.625000 0.287197
vt 0.875000 0.500000
vt 0.875000 0.750000
vt 0.666673 0.520332
vt 0.639131 0.520477
vt 0.656250 0.500000
vt 0.657713 0.729872
vt 0.843440 0.732221
vt 0.843750 0.750000
vt 0.843750 0.500000
vt 0.812500 0.500000
vt 0.781250 0.500000
vt 0.750000 0.500000
vt 0.718750 0.500000
vt 0.679505 0.520490
vt 0.687500 0.500000
vt 0.654578 0.729561
vt 0.656250 0.750000
vt 0.687500 0.750000
vt 0.718750 0.750000
vt 0.750000 0.750000
vt 0.781250 0.750000
vt 0.812255 0.729159
vt 0.812500 0.750000
vt 0.843440 0.732221
vt 0.639131 0.520477
vt 0.666673 0.520332
vt 0.654578 0.729561
vt 0.657713 0.729872
vt 0.679505 0.520490
vt 0.812255 0.729159
vt 0.625000 0.410018
vt 0.625000 0.406250
vt 0.625000 0.284306
vt 0.625000 0.293167
vt 0.625000 0.309312
vt 0.625000 0.293349
vt 0.375000 0.281250
vt 0.375000 0.312500
vt 0.375000 0.343750
vt 0.375000 0.375000
vt 0.375000 0.406250
vt 0.375000 0.437500
vt 0.375000 0.444754
vt 0.375000 0.468750
vt 0.375000 0.480930
vt 0.375000 0.480930
vt 0.375000 0.444754
vt 0.625000 0.289863
vt 0.625000 0.281250
vt 0.625000 0.319301
vt 0.625000 0.403363
vt 0.625000 0.287197
vt 0.625000 0.288335
vn -0.8930 0.0575 0.4464
vn 0.0153 -0.9999 -0.0079
vn 0.8940 -0.0529 -0.4449
vn -0.0607 0.4060 0.9119
vn -0.0043 -0.9999 -0.0127
vn -0.1833 -0.4340 -0.8821
vn 0.9215 -0.0078 -0.3882
vn 0.8163 0.3346 -0.4709
vn -0.9483 -0.3046 0.0891
vn 0.0000 0.0000 1.0000
vn -0.9988 0.0094 0.0480
vn -0.2217 0.5024 -0.8357
vn -0.1674 -0.2190 -0.9613
vn -0.2130 0.0911 -0.9728
vn 0.8708 -0.3477 -0.3477
vn -0.9443 0.2527 0.2106
vn 0.0364 0.0271 -0.9990
vn 0.0110 0.0897 -0.9959
vn 0.1106 0.0519 -0.9925
vn -0.2434 0.3642 -0.8990
vn 0.2303 0.4606 -0.8572
vn -0.2282 0.4754 -0.8497
vn 0.0109 0.1160 -0.9932
vn 0.1328 0.1669 0.9770
vn -0.8108 -0.0042 0.5853
vn 0.3236 -0.1305 -0.9372
vn 0.0152 0.0874 0.9961
vn -0.0462 -0.1302 -0.9904
vn 0.0853 0.0342 0.9958
vn 0.0814 -0.1109 -0.9905
vn 0.1568 0.2766 -0.9481
vn 0.1669 0.5501 -0.8182
vn 0.3099 0.5646 -0.7650
vn 0.9459 -0.3243 0.0000
vn 0.1115 0.5786 -0.8079
vn -0.3049 0.3956 -0.8663
vn 0.0051 0.5474 -0.8368
vn -0.0573 0.0161 0.9982
vn 0.2677 -0.1266 0.9552
vn 0.0583 -0.4133 0.9087
vn -0.0917 -0.4738 0.8759
vn -0.1325 -0.2030 0.9702
vn 0.1120 -0.0176 0.9935
vn -0.3287 -0.1817 0.9268
vn 0.2370 -0.5348 0.8110
vn -0.0575 -0.4481 0.8921
vn 0.0584 -0.4192 0.9060
vn -0.0167 -0.0777 0.9968
vn 0.1011 -0.0442 0.9939
vn -0.0378 -0.0449 0.9983
vn 0.3231 0.0208 0.9462
vn 0.0955 -0.2543 0.9624
vn -0.1824 -0.3261 0.9276
vn -0.2093 -0.1713 0.9627
vn 0.1225 0.0412 0.9916
vn 0.2312 -0.2426 -0.9422
vn -0.0976 -0.3491 -0.9320
vn 0.0716 -0.2682 -0.9607
vn 0.2488 -0.2164 -0.9441
vn 0.2551 -0.1486 -0.9554
vn -0.2612 -0.2490 -0.9326
vn -0.0734 -0.3655 -0.9279
vn 0.0012 -1.0000 -0.0005
vn -0.0011 -1.0000 0.0005
vn -0.0043 -1.0000 -0.0031
vn -0.0040 -0.9998 -0.0191
vn -0.0506 -0.9984 -0.0238
vn 0.0371 -0.9989 -0.0281
vn 0.0380 -0.9991 -0.0167
vn -0.0078 0.2809 0.9597
vn -0.0037 0.2879 0.9576
vn 0.1330 0.3021 0.9439
vn -0.1921 0.3057 0.9325
vn -0.3097 0.3681 0.8767
vn 0.0741 0.4840 0.8720
vn 0.3552 0.4708 0.8076
vn -0.1048 -0.6989 -0.7075
vn -0.2214 -0.6330 -0.7418
vn 0.3492 -0.5217 -0.7784
vn 0.1064 -0.3833 -0.9175
vn 0.1918 -0.3348 -0.9226
vn -0.9078 0.0217 -0.4189
vn 0.1455 -0.4940 -0.8572
vn 0.1200 0.0518 0.9914
vn -0.2564 -0.1478 0.9552
vn -0.2468 -0.3002 0.9214
vn 0.1070 -0.1946 0.9750
vn 0.3845 0.1325 0.9136
vn -0.0281 0.0046 0.9996
vn -0.9397 -0.1686 0.2975
vn 0.8089 0.3180 -0.4945
vn -0.1294 -0.7244 -0.6772
vn -0.1294 -0.6479 -0.7507
vn 0.8802 0.0701 -0.4695
vn -0.0778 0.0080 -0.9969
vn 0.0971 0.0298 -0.9948
vn 0.2227 0.5206 -0.8242
vn -0.1437 0.5056 -0.8507
vn 0.0360 -0.9993 -0.0052
vn 0.1583 0.1928 -0.9684
vn -0.3020 0.9407 0.1547
vn -0.1830 0.1263 -0.9750
vn -0.0500 0.9681 0.2455
vn -0.3046 0.9523 0.0177
vn -0.3119 0.9501 -0.0007
vn 0.3071 0.9117 -0.2730
vn 0.0315 0.9993 -0.0187
vn -0.4004 0.8592 0.3186
vn -0.4002 0.9162 -0.0201
vn 0.4720 0.8784 -0.0752
vn 0.0421 0.9988 -0.0240
vn 0.1778 0.9776 -0.1123
vn -0.2710 0.9619 0.0350
vn 0.4846 0.8745 0.0205
vn -0.2543 0.9660 0.0470
vn -0.2362 0.9660 -0.1055
vn -0.0327 0.9993 -0.0173
vn 0.3431 0.9301 0.1312
vn -0.2949 0.9295 0.2214
vn -0.0204 0.9979 -0.0620
vn -0.1167 0.9922 -0.0441
vn 0.0826 0.7492 -0.6572
vn -0.0262 0.7043 -0.7094
vn -0.3549 0.9326 0.0649
vn 0.0132 0.9904 -0.1374
vn 0.2618 0.9545 -0.1427
vn -0.3059 0.0810 -0.9486
vn -0.0875 0.1639 0.9826
vn 0.0420 -0.0577 -0.9974
vn 0.6594 0.2458 -0.7104
vn 0.2042 0.3806 0.9019
vn -0.0013 -0.0306 -0.9995
vn -0.3635 0.3056 0.8800
vn -0.1430 0.1189 0.9826
vn -0.0365 -0.0767 -0.9964
vn -0.0085 0.0301 0.9995
vn -0.8795 -0.0056 -0.4758
vn -0.2263 0.6955 -0.6820
vn 0.8542 0.5200 0.0000
vn -0.8683 -0.1286 -0.4791
vn 0.4011 0.8784 -0.2598
vn 0.1099 0.9753 -0.1918
vn -0.3051 -0.9452 -0.1165
vn -0.0294 0.0469 -0.9985
vn -0.2609 -0.0387 -0.9646
vn -0.2662 -0.1483 -0.9524
vn 0.2834 -0.1240 -0.9510
vn -0.1051 -0.0144 -0.9944
vn 0.3783 0.0418 -0.9248
vn -0.0332 0.0539 -0.9980
vn -0.0008 0.0519 -0.9987
vn 0.0217 0.0528 -0.9984
vn -0.7222 0.3924 -0.5695
vn -0.0002 0.0500 -0.9987
vn 0.8430 0.2074 -0.4964
vn 0.3894 0.8014 -0.4540
vn -0.2954 -0.9375 -0.1837
vn -0.1267 -0.9782 -0.1646
vn 0.1128 0.9618 -0.2492
vn -0.0920 0.4544 -0.8860
vn -0.2782 -0.2136 -0.9365
vn -0.3326 -0.9306 -0.1531
vn 0.3475 0.8841 -0.3125
usemtl Material.001
s off
f 1/1/1 2/2/1 4/3/1 3/4/1
f 109/5/2 21/6/2 115/7/2 114/8/2
f 7/9/3 8/10/3 6/11/3 5/12/3
f 34/13/4 47/14/4 2/15/4 1/16/4
f 21/6/5 109/5/5 7/9/5 5/12/5 40/17/5
f 106/18/6 89/19/6 10/20/6 48/21/6
f 12/22/7 11/23/7 15/24/7 16/25/7
f 91/26/8 90/27/8 11/23/8 12/22/8
f 89/19/9 92/28/9 9/29/9 10/20/9
f 99/30/10 91/26/10 12/22/10 54/31/10
f 68/32/10 16/25/10 132/33/10 140/34/10
f 10/20/11 9/29/11 13/35/11 14/36/11
f 54/31/10 12/22/10 16/25/10 68/32/10
f 48/21/12 10/20/12 14/36/12 61/37/12
f 79/38/13 78/39/13 152/40/13 150/41/13
f 61/37/14 14/36/14 129/42/14 134/43/14 170/44/14
f 16/25/15 15/24/15 131/45/15 132/33/15
f 14/36/16 13/35/16 128/46/16 129/42/16
f 15/24/17 67/47/17 130/48/17 131/45/17
f 67/47/18 66/49/18 139/50/18 130/48/18
f 66/49/19 65/51/19 138/52/19 139/50/19
f 65/51/20 64/53/20 137/54/20 138/52/20
f 64/53/21 63/55/21 136/56/21 137/54/21
f 63/55/22 62/57/22 171/58/22 135/59/22 136/56/22
f 62/57/23 61/37/23 170/44/23 169/60/23 171/58/23
f 86/61/24 85/62/24 153/63/24 155/64/24
f 18/65/25 17/66/25 160/67/25 161/68/25
f 78/39/26 77/69/26 154/70/26 152/40/26
f 85/62/27 84/71/27 151/72/27 153/63/27
f 77/69/28 76/73/28 156/74/28 154/70/28
f 84/71/29 83/75/29 149/76/29 151/72/29
f 76/73/30 75/77/30 158/78/30 156/74/30
f 11/23/31 53/79/31 67/47/31 15/24/31
f 53/79/32 52/80/32 66/49/32 67/47/32
f 52/80/33 165/81/33 167/82/33 65/51/33 66/49/33
f 164/83/34 167/82/34 166/84/34
f 51/85/35 50/86/35 63/55/35 64/53/35
f 50/86/36 49/87/36 62/57/36 63/55/36
f 49/87/37 48/21/37 61/37/37 62/57/37
f 9/88/38 60/89/38 74/90/38 13/91/38
f 60/89/39 59/92/39 73/93/39 74/90/39
f 59/92/40 58/94/40 72/95/40 73/93/40
f 58/94/41 57/96/41 71/97/41 72/95/41
f 57/96/42 56/98/42 70/99/42 71/97/42
f 56/98/43 55/100/43 69/101/43 70/99/43
f 55/100/10 54/31/10 68/32/10 69/101/10
f 13/91/44 74/90/44 133/102/44 128/103/44
f 74/90/45 73/93/45 145/104/45 133/102/45
f 73/93/46 72/95/46 144/105/46 145/104/46
f 72/95/47 71/97/47 143/106/47 144/105/47
f 71/97/48 70/99/48 142/107/48 143/106/48
f 70/99/49 69/101/49 141/108/49 142/107/49
f 69/101/10 68/32/10 140/34/10 141/108/10
f 92/109/50 93/110/50 60/89/50 9/88/50
f 93/110/51 94/111/51 59/92/51 60/89/51
f 94/111/52 95/112/52 58/94/52 59/92/52
f 95/112/53 96/113/53 57/96/53 58/94/53
f 96/113/54 97/114/54 56/98/54 57/96/54
f 97/114/55 98/115/55 55/100/55 56/98/55
f 98/115/10 99/30/10 54/31/10 55/100/10
f 90/27/56 100/116/56 53/79/56 11/23/56
f 100/116/57 101/117/57 52/80/57 53/79/57
f 101/117/58 102/118/58 165/81/58 52/80/58
f 102/118/59 103/119/59 51/85/59 164/83/59
f 103/119/60 104/120/60 50/86/60 51/85/60
f 104/120/61 105/121/61 49/87/61 50/86/61
f 105/121/62 106/18/62 48/21/62 49/87/62
f 3/122/63 27/123/63 34/124/63 1/125/63
f 27/123/64 26/126/64 35/127/64 34/124/64
f 26/126/65 25/128/65 36/129/65 35/127/65
f 25/128/66 24/130/66 37/131/66 36/129/66
f 24/130/67 23/132/67 38/133/67 37/131/67
f 23/132/68 22/134/68 39/135/68 38/133/68
f 22/134/69 108/136/69 21/6/69 40/17/69 39/135/69
f 5/12/70 6/11/70 41/137/70 40/138/70
f 40/138/71 41/137/71 42/139/71 39/140/71
f 39/140/72 42/139/72 43/141/72 38/142/72
f 38/142/73 43/141/73 44/143/73 37/144/73
f 37/144/74 44/143/74 45/145/74 36/146/74
f 36/146/75 45/145/75 46/147/75 35/148/75
f 35/148/76 46/147/76 47/14/76 34/13/76
f 29/149/77 28/150/77 106/18/77 105/121/77
f 30/151/78 29/149/78 105/121/78 104/120/78
f 31/152/79 30/151/79 104/120/79 103/119/79
f 32/153/80 31/152/80 103/119/80 102/118/80
f 33/154/81 32/153/81 102/118/81 101/117/81
f 111/155/82 112/156/82 121/157/82 116/158/82
f 8/10/83 110/159/83 113/160/83 107/161/83 100/116/83 90/27/83
f 42/139/10 41/137/10 99/30/10 98/115/10
f 43/141/84 42/139/84 98/115/84 97/114/84
f 44/143/85 43/141/85 97/114/85 96/113/85
f 45/145/86 44/143/86 96/113/86 95/112/86
f 46/147/87 45/145/87 95/112/87 94/111/87
f 47/14/88 46/147/88 94/111/88 93/110/88
f 2/15/89 47/14/89 93/110/89 92/109/89
f 41/137/10 6/11/10 91/26/10 99/30/10
f 4/3/90 2/2/90 92/28/90 89/19/90
f 6/11/91 8/10/91 90/27/91 91/26/91
f 28/150/92 4/3/92 89/19/92 106/18/92
f 107/161/93 112/156/93 111/155/93 33/154/93 101/117/93 100/116/93
f 113/160/94 110/159/94 120/162/94 122/163/94
f 117/164/95 116/158/95 121/157/95 118/165/95
f 118/165/96 122/163/96 120/162/96 117/164/96
f 107/161/97 113/160/97 122/163/97 118/165/97
f 112/156/98 107/161/98 118/165/98 121/157/98
f 21/6/99 108/136/99 119/166/99 115/7/99
f 171/58/100 172/167/100 170/44/100 134/43/100 135/59/100
f 17/66/101 18/65/101 129/168/101 128/169/101
f 81/170/102 19/171/102 131/45/102 130/172/102
f 19/171/103 20/173/103 132/33/103 131/45/103
f 88/174/104 17/66/104 128/169/104 133/175/104
f 18/65/105 75/77/105 134/176/105 129/168/105
f 75/77/106 76/73/106 135/177/106 134/176/106
f 76/73/107 77/69/107 136/178/107 135/177/107
f 77/69/108 78/39/108 137/179/108 136/178/108
f 78/39/109 79/38/109 138/180/109 137/179/109
f 79/38/110 80/181/110 139/182/110 138/180/110
f 80/181/111 81/170/111 130/172/111 139/182/111
f 20/173/112 82/183/112 140/184/112 132/33/112
f 82/183/113 83/75/113 141/185/113 140/184/113
f 83/75/114 84/71/114 142/186/114 141/185/114
f 84/71/115 85/62/115 143/187/115 142/186/115
f 85/62/116 86/61/116 144/188/116 143/187/116
f 86/61/117 87/189/117 145/190/117 144/188/117
f 87/189/118 88/174/118 133/175/118 145/190/118
f 158/78/119 161/68/119 160/67/119 159/191/119
f 162/192/120 146/193/120 147/194/120 163/195/120
f 146/193/121 148/196/121 149/76/121 147/194/121
f 148/196/122 150/41/122 151/72/122 149/76/122
f 150/41/123 152/40/123 153/63/123 151/72/123
f 152/40/124 154/70/124 155/64/124 153/63/124
f 154/70/125 156/74/125 157/197/125 155/64/125
f 156/74/126 158/78/126 159/191/126 157/197/126
f 19/171/127 81/170/127 146/193/127 162/192/127
f 87/189/128 86/61/128 155/64/128 157/197/128
f 80/181/129 79/38/129 150/41/129 148/196/129
f 20/173/130 19/171/130 162/192/130 163/195/130
f 88/174/131 87/189/131 157/197/131 159/191/131
f 81/170/132 80/181/132 148/196/132 146/193/132
f 17/66/133 88/174/133 159/191/133 160/67/133
f 82/183/134 20/173/134 163/195/134 147/194/134
f 75/77/135 18/65/135 161/68/135 158/78/135
f 83/75/136 82/183/136 147/194/136 149/76/136
f 165/81/137 102/118/137 168/198/137
f 167/82/138 164/83/138 51/85/138 64/53/138 65/51/138
f 102/118/139 164/83/139 166/84/139
f 167/82/140 165/81/140 168/199/140
f 124/200/141 125/201/141 169/60/141 170/44/141
f 125/201/142 123/202/142 171/58/142 169/60/142
f 123/202/143 126/203/143 172/167/143 171/58/143
usemtl Material.012
f 3/4/144 4/3/144 28/150/144 27/204/144
f 27/204/145 28/150/145 29/149/145 26/205/145
f 26/205/146 29/149/146 30/151/146 25/206/146
f 25/206/147 30/151/147 31/152/147 24/207/147
f 24/207/148 31/152/148 32/153/148 23/208/148
f 23/208/149 32/153/149 33/154/149 22/209/149
f 22/209/150 33/154/150 111/155/150 108/210/150
f 115/211/151 117/164/151 120/162/151 114/212/151
f 109/213/152 110/159/152 8/10/152 7/9/152
f 108/210/153 111/155/153 116/158/153 119/214/153
f 119/214/154 116/158/154 117/164/154 115/211/154
f 110/159/155 109/213/155 114/212/155 120/162/155
f 125/201/156 124/200/156 173/215/156
f 126/203/157 123/202/157 173/215/157
f 170/44/158 172/167/158 127/216/158
f 123/202/159 125/201/159 173/217/159
f 102/118/160 166/84/160 168/199/160
f 166/84/161 167/82/161 168/218/161
f 126/203/162 173/215/162 127/219/162 172/167/162
f 173/215/163 124/200/163 170/44/163 127/220/163
