# Blender v2.82 (sub 7) OBJ File: 'The wall.blend'
# www.blender.org
mtllib Wall-3.mtl
o the_wall_Cube.009
v -21.677471 0.020738 -6.016546
v -21.677471 6.714902 -6.016546
v -21.677471 0.020738 -12.710711
v -21.677471 6.714902 -12.710711
v 4.445171 0.020738 -6.016546
v 4.445171 6.714902 -6.016546
v 4.445171 0.020738 -12.710711
v 4.445171 6.714902 -12.710711
v 0.091397 0.020738 -10.609654
v -4.262377 0.020738 -12.710711
v -8.616150 0.020738 -10.609654
v -11.495266 0.358015 -13.305021
v -17.323698 0.020738 -10.609654
v -17.323696 6.714902 -10.609654
v -13.135263 6.813371 -12.633739
v -8.616150 6.714902 -10.609654
v -5.341034 4.885417 -12.396047
v 0.091398 6.714902 -10.609654
v -17.323696 0.020738 -8.117602
v -12.969923 0.020738 -6.016546
v -8.616150 0.020738 -8.117602
v -4.262376 0.020738 -6.016546
v 0.091398 0.020738 -8.117602
v 0.091397 6.714902 -8.117602
v -4.262377 6.714902 -6.016546
v -8.616150 6.714902 -8.117602
v -12.969924 6.714902 -6.016546
v -17.323698 6.714902 -8.117602
v -21.677471 8.159660 -6.016546
v -25.635225 8.159660 -6.016546
v 4.445171 8.159660 -6.016546
v -17.323698 8.159660 -8.117602
v -25.635225 6.714902 -12.710711
v -25.635225 6.714902 -6.016546
v -25.635225 0.020738 -6.016546
v -25.635225 0.020738 -12.710711
v 0.091397 8.159660 -8.117602
v -4.262377 8.159660 -6.016546
v -8.616150 8.159660 -8.117602
v -12.969924 8.159660 -6.016546
v 0.091398 7.388284 -11.833879
v 4.445171 7.388284 -13.934935
v -21.677471 7.388284 -13.934935
v -17.323696 8.019835 -11.833879
v -12.969923 8.865702 -13.934935
v -8.616150 7.388284 -11.833879
v -5.341034 5.558799 -13.620272
v 0.091398 8.833043 -11.833879
v 6.408864 8.833043 -13.934935
v -12.969923 10.310460 -13.934935
v -25.635225 5.243926 -12.710711
v -21.677471 8.833043 -13.934935
v -17.323696 8.833043 -11.833879
v -4.262376 12.105567 -13.934935
v -21.677471 16.042374 -5.815336
v 4.445171 16.042374 -5.815336
v -17.323698 16.042374 -7.916392
v 0.091397 16.042374 -7.916392
v -4.262377 16.042374 -5.815336
v -8.616150 16.042374 -7.916392
v -12.969924 16.042374 -5.815336
v -20.108299 16.746990 -13.730665
v 0.091398 16.715755 -11.632669
v -12.969923 18.193172 -13.733725
v -24.734661 16.720844 -13.733227
v -25.635225 8.833043 -13.934935
v -25.635225 7.388284 -13.934935
v -25.635225 16.042374 -5.815336
v 11.740110 6.714902 -12.710711
v 11.740110 0.020738 -12.710711
v 11.740110 0.020738 -6.016546
v 11.740110 6.714902 -6.016546
v 11.740110 8.159660 -6.016546
v 11.740110 8.159660 -12.710711
v 11.740110 16.042374 -5.815336
v 11.740110 8.833043 -13.934935
v 11.740110 7.388284 -13.934935
v -31.411242 0.020738 -12.710711
v -31.411242 0.020738 -6.016546
v -31.411242 6.714902 -6.016546
v -29.118790 6.714902 -13.495829
v -31.411242 8.159660 -6.016546
v -30.267952 8.159660 -12.710711
v -30.267952 8.833043 -13.934935
v -31.411242 16.715755 -13.733725
v -29.390816 7.388284 -13.569595
v -31.411242 16.561638 -12.509501
v -31.411242 16.042374 -5.815336
v -24.254786 16.723557 -13.732961
v -23.838989 16.042374 -12.509501
v -24.196678 16.042374 -12.509501
v -23.903860 13.797802 -13.807499
v -23.820332 16.042374 -11.202873
v -24.734081 16.293852 -13.617851
v -24.254206 16.296562 -13.617586
v -23.838409 15.615380 -12.394125
v -24.196098 15.615380 -12.394125
v -23.903282 13.370810 -13.692123
v -23.819752 15.615380 -11.087498
v -8.616150 15.802251 -11.739519
v -8.616150 10.388927 -11.833879
v -8.227928 12.105567 -12.021228
v -8.894187 11.990929 -11.968056
v -9.146432 13.419731 -12.050659
v -8.662804 13.595706 -9.417819
v -8.662804 12.438344 -9.447361
v -8.749852 12.402452 -9.489369
v -8.662804 11.900897 -9.447361
v -8.541259 12.438344 -9.506017
v -8.828825 12.849784 -9.515231
v 4.445171 11.625932 -14.330374
v 2.117644 8.833043 -12.811711
v 4.445171 8.360174 -13.934935
v 1.692389 10.982724 -12.551619
v 2.195317 8.237604 -12.849195
v 2.511163 8.970875 -13.579580
v 4.118071 8.970875 -14.355045
v 4.118071 10.899065 -14.628054
v 5.473789 8.970875 -14.355045
v 4.118071 8.644410 -14.355045
v 2.217569 10.454999 -13.400013
v 2.564787 8.559788 -13.605457
v -31.411242 3.404392 -13.630533
v -23.505224 0.024778 -14.759140
v -26.027327 0.008801 -15.127296
v -30.429562 0.008801 -15.127296
v -26.027327 2.695896 -15.127296
v -30.429562 2.698472 -15.127296
v -25.635225 19.406425 -5.815336
v -21.677471 19.406425 -5.815336
v -24.196678 19.406425 -12.509501
v -25.635225 20.152012 -12.509501
v 4.445171 19.406425 -5.815336
v -17.323696 20.558109 -10.408444
v -21.677471 19.406425 -12.509501
v 0.091398 20.152195 -10.408444
v 4.445171 19.926769 -10.623327
v -17.323698 19.406425 -7.916392
v -12.969923 20.644165 -12.509501
v -8.616150 21.115856 -10.408444
v -4.262376 20.315212 -10.748436
v 0.091397 19.406425 -7.916392
v -4.262377 19.406425 -5.815336
v -8.616150 19.406425 -7.916392
v -12.969924 19.406425 -5.815336
v 0.091398 20.079807 -11.632669
v 4.445171 21.247337 -15.051030
v -31.411242 19.406425 -5.815336
v -31.411242 19.925690 -12.509501
v -25.635225 20.079807 -13.733725
v -24.254786 20.087608 -13.732961
v 11.740110 19.406425 -12.509501
v -31.411242 20.079807 -13.733725
v -24.734661 20.084896 -13.733227
v -23.838989 19.406425 -12.509501
v -23.820332 19.406425 -11.202873
v 4.445171 17.883289 -15.051030
v 11.740110 16.042374 -12.509501
v 11.740110 19.406425 -5.815336
v -4.262376 23.352329 -13.733725
v 11.740110 16.715755 -13.733725
v 11.740110 20.079807 -13.733725
v -4.262376 19.988277 -13.733725
v -8.616150 23.352329 -11.632669
v -20.108299 20.111042 -13.730665
v -17.323696 16.715755 -11.632669
v -17.323696 20.079807 -11.632669
v -12.969923 21.557224 -13.733725
v -8.616150 19.988277 -11.632669
v -25.635225 16.715755 -13.733725
v 4.445171 20.136745 -17.423021
v 11.740110 17.454012 -8.187327
v 11.740110 19.187904 -8.187327
v -31.411243 17.721649 -14.881492
v -31.411243 19.455544 -14.881492
v -31.411243 19.534977 -16.105717
v 0.091398 17.801086 -14.004661
v 0.091398 19.534977 -14.004661
v 4.445171 18.402851 -17.423021
v 11.740110 19.534977 -16.105717
v -25.635225 17.801086 -16.105717
v -24.734661 17.803709 -16.105219
v -24.734661 19.537601 -16.105219
v -4.262376 19.487804 -16.105717
v -4.262376 21.221695 -16.105717
v -23.838989 17.454012 -14.881492
v -23.838989 19.187904 -14.881492
v -24.254787 19.538998 -16.104952
v -24.254787 17.805105 -16.104952
v -20.108299 17.817184 -16.102657
v -20.108299 19.551079 -16.102657
v 11.740110 17.801086 -16.105717
v 11.740110 17.454012 -14.881492
v 11.740110 19.187904 -14.881492
v -17.323696 19.534977 -14.004661
v -17.323696 17.801086 -14.004661
v -12.969923 18.562572 -16.105717
v -8.616150 19.487804 -14.004661
v -12.969923 20.296467 -16.105717
v -8.616150 21.221695 -14.004661
v -31.411243 17.801086 -16.105717
v -25.635225 19.534977 -16.105717
vt 0.375000 0.458333
vt 0.625000 0.458333
vt 0.625000 0.500000
vt 0.375000 0.500000
vt 0.375000 0.250000
vt 0.625000 0.250000
vt 0.625000 0.291667
vt 0.375000 0.291667
vt 0.625000 0.333333
vt 0.375000 0.333333
vt 0.625000 0.375000
vt 0.375000 0.375000
vt 0.625000 0.416667
vt 0.375000 0.416667
vt 0.625000 0.375000
vt 0.625000 0.372339
vt 0.625000 0.372339
vt 0.625000 0.375000
vt 0.875000 0.500000
vt 0.875000 0.548797
vt 0.875000 0.548797
vt 0.875000 0.500000
vt 0.875000 0.500000
vt 0.875000 0.500000
vt 0.570065 0.250000
vt 0.625000 0.250000
vt 0.501366 0.250000
vt 0.625000 0.250000
vt 0.625000 0.500000
vt 0.375000 0.500000
vt 0.875000 0.500000
vt 0.875000 0.500000
vt 0.875000 0.500000
vt 0.625000 0.250000
vt 0.625000 0.250000
vt 0.625000 0.250000
vt 0.625000 0.250000
vt 0.625000 0.250000
vt 0.875000 0.500000
vt 0.875000 0.548797
vt 0.625000 0.375000
vt 0.625000 0.369925
vt 0.625000 0.375000
vt 0.625000 0.378715
vt 0.625000 0.378715
vt 0.625000 0.369925
vt 0.625000 0.375000
vt 0.875000 0.500000
vt 0.875000 0.500000
vt 0.875000 0.500000
vt 0.875000 0.500000
vt 0.875000 0.500000
vt 0.875000 0.500000
vt 0.875000 0.500000
vt 0.625000 0.250000
vt 0.625000 0.250000
vt 0.625000 0.250000
vt 0.625000 0.250000
vt 0.625000 1.000000
vt 0.625000 1.000000
vt 0.625000 1.000000
vt 0.625000 1.000000
vt 0.625000 0.500000
vt 0.625000 0.500000
vt 0.375000 0.958333
vt 0.625000 0.958333
vt 0.625000 1.000000
vt 0.375000 1.000000
vt 0.333333 0.500000
vt 0.375000 0.750000
vt 0.333333 0.750000
vt 0.625000 0.375000
vt 0.625000 0.416667
vt 0.625000 0.833333
vt 0.625000 0.791667
vt 0.625000 0.791667
vt 0.625000 0.833333
vt 0.625000 0.458333
vt 0.375000 0.750000
vt 0.625000 0.750000
vt 0.625000 0.750000
vt 0.625000 0.416667
vt 0.625000 0.375000
vt 0.625000 0.416667
vt 0.125000 0.500000
vt 0.166667 0.500000
vt 0.166667 0.750000
vt 0.125000 0.750000
vt 0.208333 0.500000
vt 0.208333 0.750000
vt 0.250000 0.500000
vt 0.250000 0.750000
vt 0.291667 0.500000
vt 0.291667 0.750000
vt 0.375000 0.791667
vt 0.375000 0.833333
vt 0.625000 0.875000
vt 0.375000 0.875000
vt 0.625000 0.916667
vt 0.375000 0.916667
vt 0.625000 0.875000
vt 0.625000 0.833333
vt 0.625000 0.875000
vt 0.625000 0.750000
vt 0.625000 0.750000
vt 0.625000 0.958333
vt 0.625000 0.958333
vt 0.625000 0.791667
vt 0.625000 0.750000
vt 0.625000 0.750000
vt 0.625000 0.916667
vt 0.625000 0.500000
vt 0.625000 0.500000
vt 0.625000 0.500000
vt 0.625000 0.250000
vt 0.625000 0.250000
vt 0.625000 0.333333
vt 0.625000 1.000000
vt 0.625000 1.000000
vt 0.625000 1.000000
vt 0.625000 0.458333
vt 0.625000 0.477725
vt 0.625000 0.478468
vt 0.625000 0.333333
vt 0.625000 0.291667
vt 0.625000 0.250000
vt 0.625000 0.291667
vt 0.625000 0.291667
vt 0.625000 0.333333
vt 0.625000 0.250000
vt 0.625000 0.477725
vt 0.625000 0.478468
vt 0.125000 0.750000
vt 0.125000 0.500000
vt 0.625000 0.250000
vt 0.625000 0.250000
vt 0.625000 0.250000
vt 0.625000 0.250000
vt 0.625000 0.375000
vt 0.625000 0.333333
vt 0.625000 0.333333
vt 0.625000 0.375000
vt 0.625000 0.916667
vt 0.625000 0.875000
vt 0.625000 0.916667
vt 0.625000 0.750000
vt 0.625000 0.750000
vt 0.625000 1.000000
vt 0.625000 0.833333
vt 0.625000 0.291667
vt 0.625000 0.291667
vt 0.625000 0.958333
vt 0.625000 0.250000
vt 0.625000 0.250000
vt 0.625000 0.791667
vt 0.625000 0.458333
vt 0.125000 0.750000
vt 0.125000 0.500000
vt 0.625000 0.250000
vt 0.625000 0.250000
vt 0.625000 0.250000
vt 0.625000 0.250000
vt 0.625000 0.000000
vt 0.625000 0.000000
vt 0.625000 0.250000
vt 0.625000 1.000000
vt 0.375000 1.000000
vt 0.625000 0.250000
vt 0.625000 0.500000
vt 0.625000 0.500000
vt 0.625000 0.500000
vt 0.625000 0.500000
vt 0.625000 0.500000
vt 0.625000 0.500000
vt 0.625000 0.500000
vt 0.625000 0.471753
vt 0.625000 0.471753
vt 0.625000 0.250000
vt 0.625000 0.250000
vt 0.375000 0.000000
vt 0.625000 0.000000
vt 0.375000 0.250000
vt 0.625000 0.000000
vt 0.625000 0.250000
vt 0.625000 0.250000
vt 0.625000 1.000000
vt 0.625000 1.000000
vt 0.625000 0.416667
vt 0.625000 0.416667
vt 0.375000 1.000000
vt 0.875000 0.500000
vt 0.625000 0.500000
vt 0.625000 0.500000
vt 0.625000 0.500000
vt 0.625000 0.500000
vt 0.625000 0.500000
vt 0.625000 0.500000
vt 0.570065 0.250000
vt 0.375000 0.250000
vt 0.375000 0.250000
vt 0.501366 0.250000
vt 0.375000 0.250000
vt 0.125000 0.500000
vt 0.125000 0.500000
vt 0.125000 0.500000
vt 0.875000 0.750000
vt 0.875000 0.500000
vt 0.875000 0.500000
vt 0.875000 0.750000
vt 0.833333 0.500000
vt 0.833333 0.500000
vt 0.875000 0.500000
vt 0.833333 0.750000
vt 0.625000 0.500000
vt 0.666667 0.500000
vt 0.666667 0.750000
vt 0.708333 0.500000
vt 0.708333 0.750000
vt 0.750000 0.500000
vt 0.750000 0.750000
vt 0.791667 0.500000
vt 0.791667 0.750000
vt 0.791667 0.500000
vt 0.750000 0.500000
vt 0.708333 0.500000
vt 0.666667 0.500000
vt 0.625000 0.500000
vt 0.875000 0.500000
vt 0.875000 0.750000
vt 0.625000 0.500000
vt 0.625000 0.500000
vt 0.875000 0.500000
vt 0.875000 0.500000
vt 0.625000 0.500000
vt 0.625000 0.500000
vt 0.625000 0.458333
vt 0.625000 0.458333
vt 0.625000 0.250000
vt 0.625000 0.250000
vt 0.625000 0.750000
vt 0.625000 0.750000
vt 0.625000 0.291667
vt 0.625000 0.250000
vt 0.625000 0.250000
vt 0.625000 0.333333
vt 0.625000 0.250000
vt 0.625000 0.250000
vt 0.625000 0.375000
vt 0.625000 0.416667
vt 0.625000 0.458333
vn -0.4346 0.0000 -0.9006
vn 0.4346 0.0000 -0.9006
vn -0.4260 -0.0069 -0.9047
vn 0.5391 0.1099 -0.8350
vn -0.4575 -0.0185 -0.8890
vn 0.3590 0.0589 -0.9315
vn 0.9829 0.1635 -0.0844
vn -0.9999 0.0000 0.0143
vn 0.9609 0.0000 -0.2768
vn -0.0000 0.0000 -1.0000
vn 0.1932 -0.0650 -0.9790
vn 0.8820 -0.1218 -0.4553
vn -0.9234 -0.1013 -0.3703
vn 0.0004 0.0255 -0.9997
vn -0.9999 0.0025 0.0143
vn 0.4268 0.0231 -0.9041
vn -0.9681 0.2028 -0.1474
vn 0.9820 0.1684 -0.0852
vn -0.9893 -0.0955 -0.1106
vn -0.4345 0.0230 -0.9004
vn 0.9671 -0.1937 -0.1647
vn 0.9154 0.0000 -0.4025
vn 1.0000 0.0000 -0.0000
vn -1.0000 0.0000 0.0000
vn 0.0000 -0.0255 0.9997
vn 0.0000 -0.8762 -0.4820
vn 0.4346 0.0000 0.9006
vn 0.0000 -1.0000 0.0000
vn -0.6012 -0.7002 -0.3851
vn -0.2265 -0.8534 -0.4694
vn -0.4346 0.0000 0.9006
vn 0.0314 -0.9991 -0.0297
vn -0.0432 -0.9982 -0.0409
vn -0.4345 -0.0230 0.9004
vn 0.0000 0.0000 1.0000
vn 0.4345 -0.0230 0.9004
vn 0.2112 -0.6712 -0.7106
vn 0.3570 -0.0848 -0.9302
vn -0.4507 0.0185 -0.8925
vn -0.4408 0.0229 -0.8973
vn 0.4131 -0.7980 -0.4389
vn 0.5067 -0.0282 -0.8616
vn -0.8804 -0.0855 -0.4665
vn 0.3385 -0.7319 -0.5914
vn -0.3085 -0.5621 -0.7674
vn 0.6018 0.0000 -0.7987
vn 0.4484 0.0228 -0.8936
vn -0.0431 -0.1382 -0.9895
vn 0.0420 -0.6889 -0.7236
vn 0.0002 0.0256 -0.9997
vn -0.8753 -0.1163 -0.4694
vn 0.0006 0.0000 -1.0000
vn -0.9468 0.0000 0.3218
vn -0.9818 0.1742 -0.0757
vn -0.9249 -0.3069 -0.2242
vn -0.7889 -0.5016 -0.3551
vn -0.9939 -0.0676 -0.0875
vn -0.9894 -0.1378 -0.0466
vn 0.0000 0.0255 -0.9997
vn 0.9584 -0.0733 -0.2760
vn -0.0030 0.8736 0.4866
vn 0.0000 1.0000 -0.0000
vn 0.7101 0.1846 0.6795
vn -0.9242 0.0984 0.3689
vn -0.4886 -0.0659 -0.8700
vn -0.5432 -0.0415 -0.8386
vn 0.0933 -0.0497 -0.9944
vn 0.4247 0.1728 -0.8887
vn -0.1726 -0.8730 -0.4562
vn 0.0000 -0.1402 -0.9901
vn 0.1793 -0.7444 -0.6432
vn -0.5467 0.5161 -0.6594
vn 0.1444 0.0000 -0.9895
vn 0.6341 0.4927 -0.5960
vn -0.8967 -0.0663 -0.4377
vn 0.0000 -1.0000 0.0049
vn 0.0024 -1.0000 0.0006
vn -0.0790 0.7606 -0.6444
vn 0.0946 0.9953 0.0203
vn -0.1517 0.9884 -0.0059
vn -0.1301 0.9838 0.1233
vn -0.0115 0.9852 0.1709
vn 0.0621 0.9742 0.2171
vn 0.0195 0.9429 0.3325
vn -0.0515 0.9509 0.3051
vn -0.0096 0.9678 0.2517
vn -0.0920 0.9804 0.1741
vn -0.4757 0.5399 0.6945
vn 0.2665 0.6013 0.7533
vn 0.1591 0.8072 0.5685
vn -0.0157 0.9764 0.2156
vn -0.0195 0.9954 0.0940
vn -0.0034 0.8706 0.4919
vn 0.0414 0.9981 0.0452
vn 0.1212 0.9361 0.3302
vn -0.0196 0.9992 0.0334
vn 0.2975 0.9399 0.1674
vn 0.1777 0.0000 -0.9841
vn -0.6175 0.0000 -0.7865
vn 0.1714 0.9302 -0.3246
vn -0.0569 -0.9457 -0.3199
vn -0.8613 -0.5016 0.0811
vn -0.2607 0.8546 0.4491
vn 0.1764 0.9587 -0.2233
vn 0.1038 -0.9509 -0.2916
vn -0.3809 0.8641 -0.3289
vn 0.0041 -0.9107 -0.4131
vn -0.0040 0.9738 -0.2275
vn 0.0041 -0.9095 -0.4157
vn -0.0040 0.9745 -0.2243
vn 0.2864 -0.9577 0.0265
vn 0.0265 0.8132 -0.5814
vn 0.0991 -0.9736 0.2054
vn -0.3069 0.7080 -0.6360
vn -0.4516 -0.8855 -0.1092
vn 0.0000 -0.9093 -0.4161
vn 0.5913 0.7025 -0.3962
vn -0.0590 -0.9456 -0.3199
vn 0.0000 0.9746 -0.2239
vn 0.2908 -0.8711 -0.3958
vn -0.4108 0.8608 -0.3004
usemtl Material.009
s off
f 9/1/1 18/2/1 8/3/1 7/4/1
f 3/5/2 4/6/2 14/7/2 13/8/2
f 13/8/3 14/7/3 15/9/3 12/10/3
f 12/10/4 15/9/4 16/11/4 11/12/4
f 11/12/5 16/11/5 17/13/5 10/14/5
f 10/14/6 17/13/6 18/2/6 9/1/6
f 101/15/7 103/16/7 107/17/7 108/18/7
f 90/19/8 93/20/8 156/21/8 155/22/8
f 93/20/9 91/23/9 131/24/9 156/21/9
f 4/6/10 3/5/10 51/25/10 33/26/10
f 33/26/11 51/25/11 123/27/11 81/28/11
f 7/4/10 8/3/10 69/29/10 70/30/10
f 65/31/12 91/23/12 97/32/12 94/33/12
f 89/34/13 92/35/13 98/36/13 95/37/13
f 95/37/14 98/36/14 94/38/14
f 93/20/15 90/19/15 96/39/15 99/40/15
f 106/41/16 107/17/16 110/42/16 105/43/16
f 102/44/17 101/15/17 108/18/17 109/45/17
f 103/16/18 104/46/18 110/42/18 107/17/18
f 100/47/19 102/44/19 109/45/19 105/43/19
f 108/18/2 107/17/2 106/41/2
f 105/43/20 109/45/20 106/41/20
f 109/45/1 108/18/1 106/41/1
f 104/46/21 100/47/21 105/43/21 110/42/21
f 91/23/22 65/31/22 154/48/22 131/24/22
f 151/49/23 89/50/23 189/51/23 188/52/23
f 90/19/24 155/22/24 187/53/24 186/54/24
f 154/55/23 65/56/23 182/57/23 183/58/23
usemtl Material.010
f 29/59/25 55/60/25 68/61/25 30/62/25
f 8/3/26 42/63/26 77/64/26 69/29/26
f 19/65/27 28/66/27 2/67/27 1/68/27
f 9/69/28 7/4/28 5/70/28 23/71/28
f 17/13/29 16/11/29 46/72/29 47/73/29
f 25/74/27 24/75/27 37/76/27 38/77/27
f 8/3/30 18/2/30 41/78/30 42/63/30
f 5/70/28 7/4/28 70/30/28 71/79/28
f 24/75/31 6/80/31 31/81/31 37/76/31
f 54/82/20 102/44/20 100/47/20 169/83/20 163/84/20
f 3/85/28 13/86/28 19/87/28 1/88/28
f 13/86/32 12/89/32 20/90/32 19/87/32
f 12/89/33 11/91/33 21/92/33 20/90/33
f 11/91/28 10/93/28 22/94/28 21/92/28
f 10/93/28 9/69/28 23/71/28 22/94/28
f 5/70/31 6/80/31 24/75/31 23/95/31
f 23/95/27 24/75/27 25/74/27 22/96/27
f 22/96/31 25/74/31 26/97/31 21/98/31
f 21/98/27 26/97/27 27/99/27 20/100/27
f 20/100/31 27/99/31 28/66/31 19/65/31
f 39/101/34 38/77/34 59/102/34 60/103/34
f 31/81/35 6/80/35 72/104/35 73/105/35
f 29/59/36 32/106/36 57/107/36 55/60/36
f 38/77/36 37/76/36 58/108/36 59/102/36
f 56/109/25 31/81/25 73/105/25 75/110/25
f 26/97/31 25/74/31 38/77/31 39/101/31
f 27/99/27 26/97/27 39/101/27 40/111/27
f 42/63/10 113/112/10 49/113/10 76/114/10 77/64/10
f 28/66/31 27/99/31 40/111/31 32/106/31
f 43/115/26 4/6/26 33/26/26 67/116/26
f 16/11/37 15/9/37 45/117/37 46/72/37
f 88/118/35 68/61/35 129/119/35 148/120/35
f 2/67/27 28/66/27 32/106/27 29/59/27
f 41/78/38 47/73/38 54/82/38 48/121/38
f 47/73/39 46/72/39 101/15/39 102/44/39 54/82/39
f 42/63/1 41/78/1 48/121/1 112/122/1 115/123/1 113/112/1
f 46/72/2 45/117/2 50/124/2 103/16/2 101/15/2
f 44/125/2 43/115/2 52/126/2 53/127/2
f 45/117/1 44/125/1 53/127/1 50/124/1
f 50/124/40 53/127/40 166/128/40 64/129/40
f 18/2/41 17/13/41 47/73/41 41/78/41
f 37/76/34 31/81/34 56/109/34 58/108/34
f 53/127/42 52/126/42 62/130/42 166/128/42
f 115/123/43 112/122/43 116/131/43 122/132/43
f 3/85/28 1/88/28 35/133/28 36/134/28
f 14/7/44 4/6/44 43/115/44 44/125/44
f 15/9/45 14/7/45 44/125/45 45/117/45
f 181/135/10 201/136/10 176/137/10 202/138/10
f 198/139/2 197/140/2 199/141/2 200/142/2
f 61/143/27 60/103/27 144/144/27 145/145/27
f 56/109/35 75/110/35 159/146/35 133/147/35
f 68/61/35 55/60/35 130/148/35 129/119/35
f 60/103/31 59/102/31 143/149/31 144/144/31
f 197/140/1 196/150/1 195/151/1 199/141/1
f 55/60/27 57/107/27 138/152/27 130/148/27
f 196/150/46 190/153/46 191/154/46 195/151/46
f 59/102/27 58/108/27 142/155/27 143/149/27
f 40/111/36 39/101/36 60/103/36 61/143/36
f 48/121/47 54/82/47 163/84/47 63/156/47
f 32/106/34 40/111/34 61/143/34 57/107/34
f 36/134/28 35/133/28 79/157/28 78/158/28
f 66/159/48 67/116/48 86/160/48 84/161/48
f 87/162/24 88/163/24 148/164/24 149/165/24
f 67/116/49 33/26/49 81/28/49 86/160/49
f 1/68/35 2/67/35 34/166/35 35/167/35
f 52/126/10 43/115/10 67/116/10 66/159/10
f 62/130/50 52/126/50 66/159/50 170/168/50 65/56/50 92/35/50 89/34/50
f 193/169/23 192/170/23 180/171/23 194/172/23
f 2/67/35 29/59/35 30/62/35 34/166/35
f 70/30/23 69/29/23 72/104/23 71/79/23
f 74/173/23 69/29/23 77/64/23 76/114/23
f 74/173/23 76/114/23 161/174/23 158/175/23
f 73/105/23 74/173/23 158/175/23 75/110/23
f 72/104/23 69/29/23 74/173/23 73/105/23
f 112/122/51 114/176/51 121/177/51 116/131/51
f 6/80/35 5/70/35 71/79/35 72/104/35
f 190/153/52 189/178/52 188/179/52 191/154/52
f 189/51/53 186/54/53 187/53/53 188/52/53
f 79/180/54 80/181/54 81/28/54 123/27/54 78/182/54
f 81/28/55 80/181/55 82/183/55 83/184/55
f 81/28/56 83/184/56 84/161/56 86/160/56
f 83/184/57 82/183/57 88/163/57 87/162/57
f 84/161/58 83/184/58 87/162/58 85/185/58
f 34/166/35 30/62/35 82/186/35 80/187/35
f 184/188/1 198/139/1 200/142/1 185/189/1
f 35/167/35 34/166/35 80/187/35 79/190/35
f 170/168/59 66/159/59 84/161/59 85/185/59
f 30/62/25 68/61/25 88/118/25 82/186/25
f 91/23/60 93/20/60 99/40/60 97/32/60
f 58/108/31 56/109/31 133/147/31 142/155/31
f 96/39/61 95/191/61 94/33/61 97/32/61
f 97/32/62 99/40/62 96/39/62
f 92/35/63 65/56/63 94/38/63 98/36/63
f 90/19/64 89/50/64 95/191/64 96/39/64
f 100/47/16 104/46/16 103/16/16 50/124/16 64/129/16 169/83/16
f 117/192/65 116/131/65 121/177/65 118/193/65
f 111/194/66 114/176/66 112/122/66 48/121/66 63/156/66 157/195/66
f 49/113/67 111/194/67 157/195/67 161/174/67 76/114/67
f 111/194/68 49/113/68 119/196/68 118/193/68
f 113/112/69 115/123/69 122/132/69 120/197/69
f 117/192/70 118/193/70 119/196/70
f 119/196/10 120/197/10 117/192/10
f 120/197/1 122/132/1 116/131/1 117/192/1
f 49/113/71 113/112/71 120/197/71 119/196/71
f 114/176/72 111/194/72 118/193/72 121/177/72
f 127/198/73 124/199/73 125/200/73
f 51/25/74 3/5/74 124/199/74 127/198/74
f 78/182/75 123/27/75 128/201/75 126/202/75
f 128/201/10 127/198/10 125/200/10 126/202/10
f 36/134/76 78/158/76 126/203/76 125/204/76
f 3/85/77 36/134/77 125/204/77 124/205/77
f 123/27/78 51/25/78 127/198/78 128/201/78
f 130/206/79 135/207/79 155/22/79 156/21/79 131/24/79 132/208/79 129/209/79
f 135/207/80 134/210/80 167/211/80 165/212/80
f 134/210/81 135/207/81 130/206/81 138/213/81
f 137/214/82 136/215/82 142/216/82 133/147/82
f 136/215/83 141/217/83 143/218/83 142/216/83
f 141/217/84 140/219/84 144/220/84 143/218/84
f 140/219/85 139/221/85 145/222/85 144/220/85
f 139/221/86 134/210/86 138/213/86 145/222/86
f 134/210/87 139/221/87 168/223/87 167/211/87
f 139/221/88 140/219/88 164/224/88 168/223/88
f 140/219/89 141/217/89 160/225/89 164/224/89
f 141/217/90 136/215/90 146/226/90 160/225/90
f 136/215/91 137/214/91 147/227/91 146/226/91
f 129/209/92 132/208/92 149/228/92 148/229/92
f 135/207/93 165/212/93 151/49/93 155/22/93
f 137/214/94 133/147/94 159/146/94 152/230/94
f 147/227/95 137/214/95 152/230/95 162/231/95
f 132/208/96 150/232/96 153/233/96 149/228/96
f 131/24/97 154/48/97 150/232/97 132/208/97
f 182/57/52 181/135/52 202/138/52 183/58/52
f 57/107/31 61/143/31 145/145/31 138/152/31
f 192/170/98 179/234/98 171/235/98 180/171/98
f 177/236/2 184/188/2 185/189/2 178/237/2
f 201/136/24 174/238/24 175/239/24 176/137/24
f 172/240/23 193/169/23 194/172/23 173/241/23
f 179/234/99 177/236/99 178/237/99 171/235/99
f 162/231/23 161/174/23 192/170/23 180/171/23
f 75/110/23 158/175/23 193/169/23 172/240/23
f 147/227/100 162/231/100 180/171/100 171/235/100
f 157/195/24 147/227/24 171/235/24 179/234/24
f 161/174/101 157/195/101 179/234/101 192/170/101
f 155/22/102 151/49/102 188/52/102 187/53/102
f 167/242/23 166/128/23 196/150/23 195/151/23
f 89/50/103 90/19/103 186/54/103 189/51/103
f 165/243/104 167/242/104 195/151/104 191/154/104
f 62/130/24 165/243/24 191/154/24 190/153/24
f 150/244/23 170/168/23 181/135/23 202/138/23
f 158/175/24 152/230/24 194/172/24 193/169/24
f 64/129/105 166/128/105 196/150/105 197/140/105
f 152/230/23 159/146/23 173/241/23 194/172/23
f 159/146/23 75/110/23 172/240/23 173/241/23
f 167/242/106 168/245/106 199/141/106 195/151/106
f 62/130/107 89/34/107 189/178/107 190/153/107
f 168/245/23 64/129/23 197/140/23 199/141/23
f 151/246/108 165/243/108 191/154/108 188/179/108
f 65/56/109 170/168/109 181/135/109 182/57/109
f 150/244/110 154/55/110 183/58/110 202/138/110
f 85/185/24 87/162/24 174/238/24 201/136/24
f 87/162/24 149/165/24 175/239/24 174/238/24
f 169/83/111 64/129/111 197/140/111 198/139/111
f 149/165/24 153/247/24 176/137/24 175/239/24
f 153/247/23 85/185/23 201/136/23 176/137/23
f 168/245/112 164/248/112 200/142/112 199/141/112
f 158/175/23 161/174/23 192/170/23 193/169/23
f 164/248/23 169/83/23 198/139/23 200/142/23
f 162/231/23 152/230/23 194/172/23 180/171/23
f 163/84/113 169/83/113 198/139/113 184/188/113
f 164/248/114 160/249/114 185/189/114 200/142/114
f 63/156/115 163/84/115 184/188/115 177/236/115
f 160/249/23 163/84/23 184/188/23 185/189/23
f 170/168/116 85/185/116 201/136/116 181/135/116
f 160/249/117 146/250/117 178/237/117 185/189/117
f 157/195/118 63/156/118 177/236/118 179/234/118
f 146/250/23 63/156/23 177/236/23 178/237/23
f 153/247/119 150/244/119 202/138/119 176/137/119
f 166/128/120 62/130/120 190/153/120 196/150/120
f 146/250/121 147/227/121 171/235/121 178/237/121
